<?xml version="1.0" encoding="UTF-8"?>
<svg xmlns="http://www.w3.org/2000/svg" version="1.1" viewBox="0 0 1920 1080">
  <defs>
    <style>
      .cls-1 {
        fill: #fff;
      }
    </style>
  </defs>
  <!-- Generator: Adobe Illustrator 28.7.4, SVG Export Plug-In . SVG Version: 1.2.0 Build 166)  -->
  <g>
    <g id="Layer_1">
      <path class="cls-1" d="M1301.7,202.4l-26-25.9c.1-.5.2-.9.2-1.4-.1-2.1-2-3.7-4.1-3.6-2.1.1-3.7,2-3.6,4.1.1,2.1,2,3.7,4.1,3.6.3,0,.6,0,.9-.2l26.5,26.5c.3.3.8.5,1.3.5h34.6s34.5,34.5,34.5,34.5c.3.3.8.5,1.3.5h90.4v14.2s-44.7,44.7-44.7,44.7l-84.4-84.4c-.3-.3-.8-.5-1.3-.5h-130.7c-.7-1.3-2.1-2.2-3.7-2.1-2.1.1-3.7,2-3.6,4.1.1,2.1,2,3.7,4.1,3.6,1.4,0,2.6-.9,3.2-2.1h129.9s85.2,85.2,85.2,85.2c.3.3.8.5,1.3.5s.9-.2,1.3-.5l46.5-46.5c.3-.3.5-.8.5-1.3v-16.8c0-.5-.2-.9-.5-1.3-.3-.3-.8-.5-1.3-.5h-91.5s-34.5-34.5-34.5-34.5c-.3-.3-.8-.5-1.3-.5h-34.6ZM1296.2,253.5l20.5,20.5c-.1.4-.2.8-.2,1.2,0,2.1,1.7,3.9,3.9,3.9s3.9-1.7,3.9-3.9-1.7-3.9-3.9-3.9-.8,0-1.2.2l-21-21c-.3-.3-.8-.5-1.3-.5h-74.9c-.4-1.7-1.9-3-3.8-3s-3.9,1.7-3.9,3.9,1.7,3.9,3.9,3.9,2.1-.5,2.8-1.2h75.1ZM1696.4,462.3l46.6-46.6c.3-.3.5-.8.5-1.3v-84.7c0-.5-.2-.9-.5-1.3l-8.3-8.3c.1-.4.2-.8.2-1.2,0-2.1-1.7-3.9-3.9-3.9s-3.9,1.7-3.9,3.9,1.7,3.9,3.9,3.9.8,0,1.2-.2l7.8,7.8v83.2s-45.6,45.6-45.6,45.6h-39.9c-.5,0-.9.2-1.3.5-.3.3-.5.8-.5,1.3v30s-16,16-16,16c-.4-.1-.8-.2-1.2-.2-2.1,0-3.9,1.7-3.9,3.9s1.7,3.9,3.9,3.9,3.9-1.7,3.9-3.9,0-.8-.2-1.2l16.5-16.5c.3-.3.5-.8.5-1.3v-29h38.8c.5,0,.9-.2,1.3-.5ZM1355.3,155.4h-30.8c-.7-1.3-2.1-2.2-3.7-2.1-2.1.1-3.7,2-3.6,4.1.1,2.1,2,3.7,4.1,3.6,1.4,0,2.6-.9,3.2-2.1h30.8c.7,1.3,2.1,2.2,3.7,2.1,2.1-.1,3.8-2,3.6-4.1-.1-2.1-2-3.7-4.1-3.6-1.4,0-2.6.9-3.2,2.1ZM1440.4,576.1l21.9,21.9c.3.3.8.5,1.3.5h17.4c.5,0,.9-.2,1.3-.5l37.5-37.5c.4.1.8.2,1.2.2,2.1,0,3.9-1.7,3.9-3.9s-1.7-3.9-3.9-3.9-3.9,1.7-3.9,3.9,0,.8.2,1.2l-37,37h-15.9s-20.1-20.1-20.1-20.1l50.4-50.4h71.4c.5,0,.9-.2,1.3-.5l28.3-28.3c.3-.3.5-.8.5-1.3v-31.3s60.3-60.3,60.3-60.3c.3-.3.5-.8.5-1.3v-91.6c0-.5-.2-.9-.5-1.3l-10.2-10.2v-53.4c1.2-.6,2.1-1.9,2.1-3.4s-1.7-3.9-3.9-3.9-3.9,1.7-3.9,3.9.9,2.8,2.1,3.4v54.2c0,.5.2.9.5,1.3l10.2,10.2v90.1s-60.3,60.3-60.3,60.3c-.3.3-.5.8-.5,1.3v31.3s-27.2,27.2-27.2,27.2h-71.4c-.5,0-.9.2-1.3.5l-52.2,52.2c-.3.3-.5.8-.5,1.3s.2.9.5,1.3ZM1320.2,741.1c-.3.3-.5.8-.5,1.3v99.7c0,1,.8,1.8,1.8,1.8s1.8-.8,1.8-1.8v-98.9s13.2-13.2,13.2-13.2c.3-.3.5-.8.5-1.3v-56.4s45.3-45.3,45.3-45.3c.3-.3.5-.8.5-1.3v-12.6s66.7-66.7,66.7-66.7c.3-.3.5-.8.5-1.3v-93.7c1.2-.6,2.1-1.9,2.1-3.4,0-2.1-1.7-3.9-3.9-3.9s-3.9,1.7-3.9,3.9.9,2.8,2.1,3.4v93s-66.7,66.7-66.7,66.7c-.3.3-.5.8-.5,1.3v12.6s-45.3,45.3-45.3,45.3c-.3.3-.5.8-.5,1.3v56.4s-13.2,13.2-13.2,13.2ZM1291.5,173.7v-14.8c1.3-.7,2.2-2.1,2.1-3.7-.1-2.1-2-3.7-4.1-3.6-2.1.1-3.7,2-3.6,4.1,0,1.4.9,2.6,2.1,3.2v15.6c0,.5.2.9.5,1.3l15.4,15.4c-.1.5-.2.9-.2,1.4.1,2.1,2,3.7,4.1,3.6.4,0,.9-.1,1.3-.3.1,0,.2,0,.3,0,.5,0,.9-.2,1.3-.5.4-.4.6-1,.5-1.6.2-.5.4-1.1.3-1.8-.1-2.1-2-3.7-4.1-3.6-.3,0-.6,0-.9.2l-14.9-14.9ZM1639.9,452.3v31.9s-13.8,13.8-13.8,13.8c-.4-.1-.8-.2-1.2-.2-2.1,0-3.9,1.7-3.9,3.9s1.7,3.9,3.9,3.9,3.9-1.7,3.9-3.9,0-.8-.2-1.2l14.3-14.3c.3-.3.5-.8.5-1.3v-31.9s9.3-9.3,9.3-9.3h14.7c.5,0,.9-.2,1.3-.5l37-37c.3-.3.5-.8.5-1.3v-32.7c1.2-.6,2.1-1.9,2.1-3.4s-1.7-3.9-3.9-3.9-3.9,1.7-3.9,3.9.9,2.8,2.1,3.4v31.9s-35.9,35.9-35.9,35.9h-14.7c-.5,0-.9.2-1.3.5l-10.3,10.3c-.3.3-.5.8-.5,1.3ZM1681.1,261.3v28.6s-17.5,17.5-17.5,17.5c-.3.3-.5.8-.5,1.3v86c0,1,.8,1.8,1.8,1.8s1.8-.8,1.8-1.8v-85.2s17.5-17.5,17.5-17.5c.3-.3.5-.8.5-1.3v-30.1c0-.5-.2-.9-.5-1.3l-56.9-56.9c.1-.4.2-.8.2-1.2,0-2.1-1.7-3.9-3.9-3.9s-3.9,1.7-3.9,3.9,1.7,3.9,3.9,3.9.8,0,1.2-.2l56.4,56.4ZM1273.5,379.3l51.4,51.4c-.1.4-.2.8-.2,1.2,0,2.1,1.7,3.9,3.9,3.9s3.9-1.7,3.9-3.9-1.7-3.9-3.9-3.9-.8,0-1.2.2l-51.9-51.9c-.3-.3-.8-.5-1.3-.5h-111.7c-.6-1.2-1.9-2.1-3.4-2.1-2.1,0-3.9,1.7-3.9,3.9s1.7,3.9,3.9,3.9,2.8-.9,3.4-2.1h110.9ZM1283.3,356.1l42.4,42.4c-.1.4-.2.8-.2,1.2,0,2.1,1.7,3.9,3.9,3.9s3.9-1.7,3.9-3.9-1.7-3.9-3.9-3.9-.8,0-1.2.2l-42.9-42.9c-.3-.3-.8-.5-1.3-.5h-121.4c-.6-1.2-1.9-2.1-3.4-2.1-2.1,0-3.9,1.7-3.9,3.9s1.7,3.9,3.9,3.9,2.8-.9,3.4-2.1h120.7ZM1149,425.4v20.4c-1.2.6-2.1,1.9-2.1,3.4s1.7,3.9,3.9,3.9,3.9-1.7,3.9-3.9-.9-2.8-2.1-3.4v-19.7s35.1-35.1,35.1-35.1h66.4c.6,1.2,1.9,2.1,3.4,2.1,2.1,0,3.9-1.7,3.9-3.9s-1.7-3.9-3.9-3.9-2.8.9-3.4,2.1h-67.1c-.5,0-.9.2-1.3.5l-36.1,36.1c-.3.3-.5.8-.5,1.3ZM1179.8,471h53.7c.5,0,.9-.2,1.3-.5l36.1-36.1c.3-.3.5-.8.5-1.3v-40.5c1.5-.5,2.5-2,2.5-3.6s-1.7-3.9-3.9-3.9-3.9,1.7-3.9,3.9.7,2.5,1.7,3.2v40.2s-35.1,35.1-35.1,35.1h-51.2v-12.3s35.1-35.1,35.1-35.1h37.3c.6,1.2,1.9,2.1,3.4,2.1,2.1,0,3.9-1.7,3.9-3.9s-1.7-3.9-3.9-3.9-2.8.9-3.4,2.1h-38.1c-.5,0-.9.2-1.3.5l-36.1,36.1c-.3.3-.5.8-.5,1.3v14.8c0,.5.2.9.5,1.3.3.3.8.5,1.3.5ZM1296,842.5c-.3.3-.5.8-.5,1.3v17.3c0,1,.8,1.8,1.8,1.8s1.8-.8,1.8-1.8v-16.6s11-11,11-11c.3-.3.5-.8.5-1.3v-105.6s14.3-14.3,14.3-14.3c.2,0,.4,0,.7,0,2.1,0,3.9-1.7,3.9-3.9s-1.7-3.9-3.9-3.9-3.9,1.7-3.9,3.9.1,1.1.4,1.6l-14.5,14.5c-.3.3-.5.8-.5,1.3v105.6s-11,11-11,11ZM1306,456.6v-30.5c1.2-.6,2.1-1.9,2.1-3.4,0-2.1-1.7-3.9-3.9-3.9s-3.9,1.7-3.9,3.9.9,2.8,2.1,3.4v29.8s-47,47-47,47h-35.3c-.6-1.2-1.9-2.1-3.4-2.1-2.1,0-3.9,1.7-3.9,3.9s1.7,3.9,3.9,3.9,2.8-.9,3.4-2.1h36c.5,0,.9-.2,1.3-.5l48-48c.3-.3.5-.8.5-1.3ZM1125.5,485.1c0,0,0,.1,0,.2.1,2,1.8,3.7,3.9,3.7s2.8-.9,3.4-2.1h20.9s59.5,59.5,59.5,59.5c.3.3.8.5,1.3.5h93.7c.5,0,.9-.2,1.3-.5l23.9-23.9c.4.1.8.2,1.2.2,2.1,0,3.9-1.7,3.9-3.9s-1.7-3.9-3.9-3.9-3.9,1.7-3.9,3.9,0,.8.2,1.2l-23.3,23.3h-92.2s-59.5-59.5-59.5-59.5c-.3-.3-.8-.5-1.3-.5h-21.6c-.6-1.2-1.9-2.1-3.4-2.1s-3.7,1.6-3.9,3.7c0,0,0,.1,0,.2ZM1493.3,544h68c.5,0,.9-.2,1.3-.5l68-68c.3-.3.5-.8.5-1.3v-28.8s47.3-47.3,47.3-47.3c.3-.3.5-.8.5-1.3v-26.2c1.2-.6,2.1-1.9,2.1-3.4,0-2.1-1.7-3.9-3.9-3.9s-3.9,1.7-3.9,3.9.9,2.8,2.1,3.4v25.5s-47.3,47.3-47.3,47.3c-.3.3-.5.8-.5,1.3v28.8s-66.9,66.9-66.9,66.9h-68c-.5,0-.9.2-1.3.5l-30.3,30.3c-.4-.1-.8-.2-1.2-.2-2.1,0-3.9,1.7-3.9,3.9s1.7,3.9,3.9,3.9,3.9-1.7,3.9-3.9,0-.8-.2-1.2l29.8-29.8ZM1166.9,757.2c-.3.3-.5.8-.5,1.3v68.6c0,1,.8,1.8,1.8,1.8s1.8-.8,1.8-1.8v-67.8s22.9-22.9,22.9-22.9c.3-.3.5-.8.5-1.3v-32.2c0-.5-.2-.9-.5-1.3l-37.6-37.6c.1-.4.2-.8.2-1.2,0-2.1-1.7-3.9-3.9-3.9s-3.9,1.7-3.9,3.9,1.7,3.9,3.9,3.9.8,0,1.2-.2l37,37v30.8s-22.9,22.9-22.9,22.9ZM1165.8,703.1v15.8c-1.2.6-2.1,1.9-2.1,3.4s1.7,3.9,3.9,3.9,3.9-1.7,3.9-3.9-.9-2.8-2.1-3.4v-16.6c0-.5-.2-.9-.5-1.3l-34.3-34.3v-47.4c0-.5-.2-.9-.5-1.3l-6.4-6.4c.1-.4.2-.8.2-1.2,0-2.1-1.7-3.9-3.9-3.9s-3.9,1.7-3.9,3.9,1.7,3.9,3.9,3.9.8,0,1.2-.2l5.8,5.8v47.4c0,.5.2.9.5,1.3l34.3,34.3ZM1176.5,766v72.2c0,1,.8,1.8,1.8,1.8s1.8-.8,1.8-1.8v-71.5s10.8-10.8,10.8-10.8c.4.1.8.2,1.2.2,2.1,0,3.9-1.7,3.9-3.9s-1.7-3.9-3.9-3.9-3.9,1.7-3.9,3.9,0,.8.2,1.2l-11.3,11.3c-.3.3-.5.8-.5,1.3ZM1100.1,562.5l46.9,46.9v26.1c-1.2.6-2.1,1.9-2.1,3.4s1.7,3.9,3.9,3.9,3.9-1.7,3.9-3.9-.9-2.8-2.1-3.4v-26.8c0-.5-.2-.9-.5-1.3l-46.9-46.9v-83.8s29.1-29.1,29.1-29.1c.3-.3.5-.8.5-1.3v-102.3c1.2-.6,2.1-1.9,2.1-3.4s-1.7-3.9-3.9-3.9-3.9,1.7-3.9,3.9.9,2.8,2.1,3.4v101.6s-29.1,29.1-29.1,29.1c-.3.3-.5.8-.5,1.3v85.3c0,.5.2.9.5,1.3ZM1154.2,750.1v68.2c0,1,.8,1.8,1.8,1.8s1.8-.8,1.8-1.8v-67.5s18.9-18.9,18.9-18.9c.4.1.8.2,1.2.2,2.1,0,3.9-1.7,3.9-3.9s-1.7-3.9-3.9-3.9-3.9,1.7-3.9,3.9,0,.8.2,1.2l-19.5,19.5c-.3.3-.5.8-.5,1.3ZM1282.6,840.6c-.3.3-.5.8-.5,1.3l.4,28c0,1,.8,1.8,1.8,1.8h0c1,0,1.8-.8,1.8-1.8l-.4-27.3,13.9-13.9c.3-.3.5-.8.5-1.3v-114.9s23.8-23.8,23.8-23.8c.5.3,1.1.4,1.7.4,2.1,0,3.9-1.7,3.9-3.9s-1.7-3.9-3.9-3.9-3.9,1.7-3.9,3.9,0,.4,0,.5l-24.7,24.7c-.3.3-.5.8-.5,1.3v114.9s-13.9,13.9-13.9,13.9ZM1072,467.3l12.3,12.3v62.6c-1.2.6-2.1,1.9-2.1,3.4,0,2.1,1.7,3.9,3.9,3.9s3.9-1.7,3.9-3.9-.9-2.8-2.1-3.4v-63.3c0-.5-.2-.9-.5-1.3l-12.3-12.3v-68.8s26.5-26.5,26.5-26.5c.4.1.8.2,1.2.2,2.1,0,3.9-1.7,3.9-3.9s-1.7-3.9-3.9-3.9-3.9,1.7-3.9,3.9,0,.8.2,1.2l-27,27c-.3.3-.5.8-.5,1.3v70.3c0,.5.2.9.5,1.3ZM1284.6,701.8v114.1c-1.2.6-2.1,1.9-2.1,3.4,0,2.1,1.7,3.9,3.9,3.9s3.9-1.7,3.9-3.9-.9-2.8-2.1-3.4v-113.4s81.4-81.4,81.4-81.4c.3-.3.5-.8.5-1.3v-89c0-.5-.2-.9-.5-1.3l-20.4-20.4c.1-.4.2-.8.2-1.2,0-2.1-1.7-3.9-3.9-3.9s-3.9,1.7-3.9,3.9,1.7,3.9,3.9,3.9.8,0,1.2-.2l19.8,19.8v87.5s-81.4,81.4-81.4,81.4c-.3.3-.5.8-.5,1.3ZM1168.4,252.1l-16.1-16.1c-.7-.7-1.8-.7-2.5,0l-56.5,56.5c-.3.3-.5.8-.5,1.3v44.5s-20.4,20.4-20.4,20.4c-.3.3-.5.8-.5,1.3v12.4s-13.3,13.3-13.3,13.3c-.3.3-.5.8-.5,1.3v22.4c-1.2.6-2.1,1.9-2.1,3.4s1.7,3.9,3.9,3.9,3.9-1.7,3.9-3.9-.9-2.8-2.1-3.4v-21.6s13.3-13.3,13.3-13.3c.3-.3.5-.8.5-1.3v-12.4s20.4-20.4,20.4-20.4c.3-.3.5-.8.5-1.3v-44.5s54.7-54.7,54.7-54.7l14.3,14.3v40.2s-33.4,33.4-33.4,33.4h-17.3c-.5,0-.9.2-1.3.5-.3.3-.5.8-.5,1.3v80.9s-29,29-29,29c-.2,0-.5,0-.8,0-2.1,0-3.9,1.7-3.9,3.9s1.7,3.9,3.9,3.9,3.9-1.7,3.9-3.9-.1-1.1-.3-1.5l29.2-29.2c.3-.3.5-.8.5-1.3v-79.9h16.3c.5,0,.9-.2,1.3-.5l34.4-34.4c.3-.3.5-.8.5-1.3v-41.6c0-.5-.2-.9-.5-1.3ZM1252,692.8c-.3.3-.5.8-.5,1.3v178.9c0,1,.8,1.8,1.8,1.8s1.8-.8,1.8-1.8v-178.1s54.6-54.6,54.6-54.6c.7-.7.7-1.8,0-2.5l-20-20c-.3-.3-.8-.5-1.3-.5h-104.3s-67.7-67.7-67.7-67.7c.1-.4.2-.8.2-1.2,0-2.1-1.7-3.9-3.9-3.9s-3.9,1.7-3.9,3.9,1.7,3.9,3.9,3.9.8,0,1.2-.2l68.2,68.2c.3.3.8.5,1.3.5h104.3s18.2,18.2,18.2,18.2l-53.9,53.9ZM1305.7,168.5v-17.5c1.3-.7,2.2-2.1,2.1-3.7-.1-2.1-2-3.7-4.1-3.6-2.1.1-3.7,2-3.6,4.1,0,1.4.9,2.6,2.1,3.2v18.3c0,.5.2.9.5,1.3l20.3,20.3c-.1.5-.2.9-.2,1.4.1,2.1,2,3.8,4.1,3.6,2.1-.1,3.7-2,3.6-4.1-.1-2.1-2-3.7-4.1-3.6-.3,0-.6,0-.9.2l-19.8-19.8ZM1264.6,698.6c-.3.3-.5.8-.5,1.3v173.1c0,1,.8,1.8,1.8,1.8s1.8-.8,1.8-1.8v-172.3s80.5-80.5,80.5-80.5c.2,0,.4,0,.7,0,2.1,0,3.9-1.7,3.9-3.9s-1.7-3.9-3.9-3.9-3.9,1.7-3.9,3.9.1,1.1.4,1.6l-80.7,80.7ZM1544.5,166.9l-15.2-15.2c.1-.4.2-.8.2-1.2,0-2.1-1.7-3.9-3.9-3.9s-3.9,1.7-3.9,3.9,1.7,3.9,3.9,3.9.8,0,1.2-.2l13.9,13.9-20.6,20.6h-39.4s-19.4-19.4-19.4-19.4v-20.6c1.2-.6,2.1-1.9,2.1-3.4,0-2.1-1.7-3.9-3.9-3.9s-3.9,1.7-3.9,3.9.9,2.8,2.1,3.4v21.3c0,.5.2.9.5,1.3l20.4,20.4c.3.3.8.5,1.3.5h40.8c.5,0,.9-.2,1.3-.5l22.3-22.3c.7-.7.7-1.8,0-2.5ZM1375.6,455.7v-88.2s106.5-106.5,106.5-106.5c.3-.3.5-.8.5-1.3v-41.3c1.2-.6,2.1-1.9,2.1-3.4,0-2.1-1.7-3.9-3.9-3.9s-3.9,1.7-3.9,3.9.9,2.8,2.1,3.4v40.5s-106.5,106.5-106.5,106.5c-.3.3-.5.8-.5,1.3v88.2s-72.5,72.5-72.5,72.5h-79.5s-56.9-56.9-56.9-56.9c.1-.4.2-.8.2-1.2,0-2.1-1.7-3.9-3.9-3.9s-3.9,1.7-3.9,3.9,1.7,3.9,3.9,3.9.8,0,1.2-.2l57.4,57.4c.3.3.8.5,1.3.5h81c.5,0,.9-.2,1.3-.5l73.5-73.5c.3-.3.5-.8.5-1.3ZM1232.5,683.9c-.3.3-.5.8-.5,1.3v187.7c0,1,.8,1.8,1.8,1.8s1.8-.8,1.8-1.8v-187s48.5-48.5,48.5-48.5c.4.1.8.2,1.2.2,2.1,0,3.9-1.7,3.9-3.9s-1.7-3.9-3.9-3.9-3.9,1.7-3.9,3.9,0,.8.2,1.2l-49,49ZM1242.5,688.1c-.3.3-.5.8-.5,1.3v183.5c0,1,.8,1.8,1.8,1.8s1.8-.8,1.8-1.8v-182.8s46.7-46.7,46.7-46.7c.4.1.8.2,1.2.2,2.1,0,3.9-1.7,3.9-3.9s-1.7-3.9-3.9-3.9-3.9,1.7-3.9,3.9,0,.8.2,1.2l-47.2,47.2ZM1333,415.7c0-2.1-1.7-3.9-3.9-3.9s-.8,0-1.2.2l-47-47c-.3-.3-.8-.5-1.3-.5h-117.1c-.6-1.2-1.9-2.1-3.4-2.1-2.1,0-3.9,1.7-3.9,3.9s1.7,3.9,3.9,3.9,2.8-.9,3.4-2.1h116.4s46.5,46.5,46.5,46.5c-.1.4-.2.8-.2,1.2,0,2.1,1.7,3.9,3.9,3.9s3.9-1.7,3.9-3.9ZM1317.8,298.7c0,2.1,1.7,3.9,3.9,3.9s2.2-.5,2.9-1.4h23.8s15.7,15.7,15.7,15.7v28.9c-1.2.6-2.1,1.9-2.1,3.4s1.7,3.9,3.9,3.9,3.9-1.7,3.9-3.9-.9-2.8-2.1-3.4v-29.7c0-.5-.2-.9-.5-1.3l-16.8-16.8c-.3-.3-.8-.5-1.3-.5h-23.8c-.5-1.6-1.9-2.8-3.7-2.8s-3.9,1.7-3.9,3.9ZM1429.2,256.1l4.1,4.1c-.1.4-.2.9-.2,1.3,0,2.1,1.9,3.8,4,3.7,2.1,0,3.8-1.9,3.7-4,0-2.1-1.9-3.8-4-3.7-.3,0-.7,0-1,.2l-4.1-4.1c.1-.4.2-.8.2-1.2,0-2.1-1.7-3.9-3.9-3.9s-3.9,1.7-3.9,3.9,1.7,3.9,3.9,3.9.8,0,1.2-.2ZM1410.5,256.1l14.1,14.1c-.1.4-.2.8-.2,1.2,0,2.1,1.7,3.9,3.9,3.9s3.9-1.7,3.9-3.9-1.7-3.9-3.9-3.9-.8,0-1.2.2l-14.1-14.1c.1-.4.2-.8.2-1.2,0-2.1-1.7-3.9-3.9-3.9s-3.9,1.7-3.9,3.9,1.7,3.9,3.9,3.9.8,0,1.2-.2ZM1391.8,256.1l23.3,23.3c-.1.4-.2.8-.2,1.2,0,2.1,1.7,3.9,3.9,3.9s3.9-1.7,3.9-3.9-1.7-3.9-3.9-3.9-.8,0-1.2.2l-23.3-23.3c.1-.4.2-.8.2-1.2,0-2.1-1.7-3.9-3.9-3.9s-3.9,1.7-3.9,3.9,1.7,3.9,3.9,3.9.8,0,1.2-.2ZM1315.9,254.6l9.7,9.7c-.2.5-.3,1-.3,1.5,0,2.1,1.7,3.9,3.9,3.9s3.9-1.7,3.9-3.9-1.7-3.9-3.9-3.9-.6,0-.8,0l-9.9-9.9c.1-.4.2-.8.2-1.2,0-2.1-1.7-3.9-3.9-3.9s-3.9,1.7-3.9,3.9,1.7,3.9,3.9,3.9.8,0,1.1-.2ZM1248.8,434.9l-4.8-4.8c.1-.4.2-.8.2-1.2,0-2.1-1.7-3.9-3.9-3.9s-3.9,1.7-3.9,3.9,1.7,3.9,3.9,3.9.8,0,1.2-.2l4.8,4.8c-.1.4-.2.8-.2,1.2,0,2.1,1.7,3.9,3.9,3.9s3.9-1.7,3.9-3.9-1.7-3.9-3.9-3.9-.8,0-1.2.2ZM1240.1,444.9l-14.3-14.3c.2-.5.3-1,.3-1.6,0-2.1-1.7-3.9-3.9-3.9s-3.9,1.7-3.9,3.9,1.7,3.9,3.9,3.9.5,0,.7,0l14.6,14.6c-.1.4-.2.8-.2,1.2,0,2.1,1.7,3.9,3.9,3.9s3.9-1.7,3.9-3.9-1.7-3.9-3.9-3.9-.8,0-1.2.2ZM1435.4,536.5v-122.9h8.7s15.8,15.8,15.8,15.8c.3.3.8.5,1.3.5s.9-.2,1.3-.5l17.2-17.2c.7-.7.7-1.8,0-2.5l-36.5-36.5c.1-.4.2-.8.2-1.2,0-2.1-1.7-3.9-3.9-3.9s-3.9,1.7-3.9,3.9,1.7,3.9,3.9,3.9.8,0,1.2-.2l35.2,35.2-14.7,14.7-15.1-15.1c-.3-.3-.8-.5-1.3-.5h-11.2c-.5,0-.9.2-1.3.5-.3.3-.5.8-.5,1.3v124.7c-1.2.6-2.1,1.9-2.1,3.4,0,2.1,1.7,3.9,3.9,3.9s3.9-1.7,3.9-3.9-.9-2.8-2.1-3.4ZM1492.1,507.8v-36.8s88.9-88.9,88.9-88.9c.3-.3.5-.8.5-1.3v-122.1c0-.5-.2-.9-.5-1.3l-57.6-57.6c-.3-.3-.8-.5-1.3-.5h-40.3c-.7-1.1-1.9-1.8-3.3-1.8-2.1,0-3.9,1.7-3.9,3.9s1.7,3.9,3.9,3.9,3-1,3.6-2.4h39.2s56.6,56.5,56.6,56.5v120.6s-88.9,88.9-88.9,88.9c-.3.3-.5.8-.5,1.3v37.5c-1.2.6-2.1,1.9-2.1,3.4,0,2.1,1.7,3.9,3.9,3.9s3.9-1.7,3.9-3.9-.9-2.8-2.1-3.4ZM1481.4,517.6v-52.1s62.7-62.7,62.7-62.7c.3-.3.5-.8.5-1.3v-33.6s24.8-24.8,24.8-24.8c.3-.3.5-.8.5-1.3v-77.5c0-.5-.2-.9-.5-1.3l-24.9-24.9c.1-.4.2-.8.2-1.2,0-2.1-1.7-3.9-3.9-3.9s-3.9,1.7-3.9,3.9,1.7,3.9,3.9,3.9.8,0,1.2-.2l24.3,24.4v76s-24.8,24.8-24.8,24.8c-.3.3-.5.8-.5,1.3v33.6s-62.7,62.7-62.7,62.7c-.3.3-.5.8-.5,1.3v52.9c-1.2.6-2.1,1.9-2.1,3.4,0,2.1,1.7,3.9,3.9,3.9s3.9-1.7,3.9-3.9-.9-2.8-2.1-3.4ZM1471.5,525.3v-68.9s59.6-59.7,59.6-59.7c.3-.3.5-.8.5-1.3v-35s23.8-23.8,23.8-23.8c.3-.3.5-.8.5-1.3v-65.9c0-.5-.2-.9-.5-1.3l-19.7-19.7c.1-.4.2-.8.2-1.2,0-2.1-1.7-3.9-3.9-3.9s-3.9,1.7-3.9,3.9,1.7,3.9,3.9,3.9.8,0,1.2-.2l19.2,19.2v64.4s-23.8,23.8-23.8,23.8c-.3.3-.5.8-.5,1.3v35s-59.7,59.7-59.7,59.7c-.3.3-.5.8-.5,1.3v69.6c-1.2.6-2.1,1.9-2.1,3.4,0,2.1,1.7,3.9,3.9,3.9s3.9-1.7,3.9-3.9-.9-2.8-2.1-3.4ZM1460.3,534.8v-86.1s36.9-36.9,36.9-36.9c.7-.7.7-1.8,0-2.5l-47-47,10.5-10.5h51c.6,1.2,1.9,2.1,3.4,2.1,2.1,0,3.9-1.7,3.9-3.9s-1.7-3.9-3.9-3.9-2.8.9-3.4,2.1h-51.7c-.5,0-.9.2-1.3.5l-12.2,12.2c-.3.3-.5.8-.5,1.3s.2.9.5,1.3l47,47-36.1,36.1c-.3.3-.5.8-.5,1.3v86.8c-1.2.6-2.1,1.9-2.1,3.4s1.7,3.9,3.9,3.9,3.9-1.7,3.9-3.9-.9-2.8-2.1-3.4ZM1421.6,550v-148.2h27.1s10.4,10.4,10.4,10.4c-.1.4-.2.8-.2,1.2,0,2.1,1.7,3.9,3.9,3.9s3.9-1.7,3.9-3.9-1.7-3.9-3.9-3.9-.8,0-1.2.2l-10.9-10.9c-.3-.3-.8-.5-1.3-.5h-29.7c-.5,0-.9.2-1.3.5-.3.3-.5.8-.5,1.3v150.2c-1.1.7-1.9,1.9-1.9,3.3,0,2.1,1.7,3.9,3.9,3.9s3.9-1.7,3.9-3.9-.9-2.9-2.3-3.5ZM1410.9,561v-182.4s107.4-107.4,107.4-107.4c.3-.3.5-.8.5-1.3v-51.6c1.2-.6,2.1-1.9,2.1-3.4,0-2.1-1.7-3.9-3.9-3.9s-3.9,1.7-3.9,3.9.9,2.8,2.1,3.4v50.9s-107.4,107.4-107.4,107.4c-.3.3-.5.8-.5,1.3v183.1c-1.2.6-2.1,1.9-2.1,3.4s1.7,3.9,3.9,3.9,3.9-1.7,3.9-3.9-.9-2.8-2.1-3.4ZM1400.1,571.4v-194.9s107.8-107.8,107.8-107.8c.3-.3.5-.8.5-1.3v-49c1.2-.6,2.1-1.9,2.1-3.4,0-2.1-1.7-3.9-3.9-3.9s-3.9,1.7-3.9,3.9.9,2.8,2.1,3.4v48.3s-107.8,107.8-107.8,107.8c-.3.3-.5.8-.5,1.3v195.9c-1.1.7-1.9,1.9-1.9,3.3,0,2.1,1.7,3.9,3.9,3.9s3.9-1.7,3.9-3.9-1-3-2.3-3.6ZM1387.2,584.8v-211.8s106.9-106.9,106.9-106.9c.3-.3.5-.8.5-1.3v-46.4c1.2-.6,2.1-1.9,2.1-3.4,0-2.1-1.7-3.9-3.9-3.9s-3.9,1.7-3.9,3.9.9,2.8,2.1,3.4v45.7s-106.9,106.9-106.9,106.9c-.3.3-.5.8-.5,1.3v212.4c-1.3.6-2.2,1.9-2.2,3.5s1.7,3.9,3.9,3.9,3.9-1.7,3.9-3.9-.8-2.7-2-3.4ZM1512.3,386.7l-14.8-14.8c.1-.4.2-.8.2-1.2,0-2.1-1.7-3.9-3.9-3.9s-3.9,1.7-3.9,3.9,1.7,3.9,3.9,3.9.8,0,1.2-.2l14.8,14.8c-.1.4-.2.8-.2,1.2,0,2.1,1.7,3.9,3.9,3.9s3.9-1.7,3.9-3.9-1.7-3.9-3.9-3.9-.8,0-1.2.2ZM1502.8,395.9l-24-24c.1-.4.2-.8.2-1.2,0-2.1-1.7-3.9-3.9-3.9s-3.9,1.7-3.9,3.9,1.7,3.9,3.9,3.9.8,0,1.2-.2l24,24c-.1.4-.2.8-.2,1.2,0,2.1,1.7,3.9,3.9,3.9s3.9-1.7,3.9-3.9-1.7-3.9-3.9-3.9-.8,0-1.2.2ZM1528.1,336.1h-51.8c-.6-1.2-1.9-2.1-3.4-2.1-2.1,0-3.9,1.7-3.9,3.9s1.7,3.9,3.9,3.9,2.8-.9,3.4-2.1h51.8c.6,1.2,1.9,2.1,3.4,2.1,2.1,0,3.9-1.7,3.9-3.9s-1.7-3.9-3.9-3.9-2.8.9-3.4,2.1ZM1503.4,300.4c0,2.1,1.7,3.9,3.9,3.9s2.8-.9,3.4-2.1h17.3c.6,1.2,1.9,2.1,3.4,2.1,2.1,0,3.9-1.7,3.9-3.9s-1.7-3.9-3.9-3.9-2.8.9-3.4,2.1h-17.3c-.6-1.2-1.9-2.1-3.4-2.1-2.1,0-3.9,1.7-3.9,3.9ZM1490.9,313.3c0,2.1,1.7,3.9,3.9,3.9s2.8-.9,3.4-2.1h29.9c.6,1.2,1.9,2.1,3.4,2.1,2.1,0,3.9-1.7,3.9-3.9s-1.7-3.9-3.9-3.9-2.8.9-3.4,2.1h-29.9c-.6-1.2-1.9-2.1-3.4-2.1-2.1,0-3.9,1.7-3.9,3.9ZM1478.6,325.6c0,2.1,1.7,3.9,3.9,3.9s2.8-.9,3.4-2.1h41.5c.6,1.2,1.9,2.1,3.4,2.1,2.1,0,3.9-1.7,3.9-3.9s-1.7-3.9-3.9-3.9-2.8.9-3.4,2.1h-41.5c-.6-1.2-1.9-2.1-3.4-2.1-2.1,0-3.9,1.7-3.9,3.9ZM1699.3,237c0-2.1-1.7-3.9-3.9-3.9s-.8,0-1.2.2l-59.1-59.1c-.3-.3-.8-.5-1.3-.5h-36.2s-16.7-16.7-16.7-16.7c-.3-.3-.8-.5-1.3-.5h-10.9c-.6-1.2-1.9-2.1-3.4-2.1-2.1,0-3.9,1.7-3.9,3.9s1.7,3.9,3.9,3.9,2.8-.9,3.4-2.1h10.2s16.7,16.7,16.7,16.7c.3.3.8.5,1.3.5h36.2s58.6,58.6,58.6,58.6c-.1.4-.2.8-.2,1.2,0,2.1,1.7,3.9,3.9,3.9s3.9-1.7,3.9-3.9ZM1706.1,260.1c-2.1,0-3.9,1.7-3.9,3.9s.9,2.8,2.1,3.4v36.2s-15.8,15.8-15.8,15.8c-.3.3-.5.8-.5,1.3v81.8s-19,19-19,19c-.4-.1-.8-.2-1.2-.2-2.1,0-3.9,1.7-3.9,3.9s1.7,3.9,3.9,3.9,3.9-1.7,3.9-3.9,0-.8-.2-1.2l19.5-19.5c.3-.3.5-.8.5-1.3v-81.8s15.8-15.8,15.8-15.8c.3-.3.5-.8.5-1.3v-37c1.2-.6,2.1-1.9,2.1-3.4,0-2.1-1.7-3.9-3.9-3.9ZM1717.2,280.8v31.5s-14.5,14.5-14.5,14.5c-.3.3-.5.8-.5,1.3v15.1c-1.2.6-2.1,1.9-2.1,3.4s1.7,3.9,3.9,3.9,3.9-1.7,3.9-3.9-.9-2.8-2.1-3.4v-14.3s14.5-14.5,14.5-14.5c.3-.3.5-.8.5-1.3v-32.3c1.2-.6,2.1-1.9,2.1-3.4,0-2.1-1.7-3.9-3.9-3.9s-3.9,1.7-3.9,3.9.9,2.8,2.1,3.4ZM1752.5,400.2c0,2.1,1.7,3.9,3.9,3.9s3.9-1.7,3.9-3.9-.9-2.8-2.1-3.4v-70.7c0-.5-.2-.9-.5-1.3l-24.6-24.6v-27c0-.5-.2-.9-.5-1.3l-19.3-19.3c.1-.4.2-.8.2-1.2,0-2.1-1.7-3.9-3.9-3.9s-3.9,1.7-3.9,3.9,1.7,3.9,3.9,3.9.8,0,1.2-.2l18.8,18.8v27c0,.5.2.9.5,1.3l24.6,24.6v70c-1.2.6-2.1,1.9-2.1,3.4ZM1679,341.8v-27.8s17.9-17.9,17.9-17.9c.3-.3.5-.8.5-1.3v-39.3c0-.5-.2-.9-.5-1.3l-66.1-66.1c-.3-.3-.8-.5-1.3-.5h-26.2c-.6-1.2-1.9-2.1-3.4-2.1-2.1,0-3.9,1.7-3.9,3.9s1.7,3.9,3.9,3.9,2.8-.9,3.4-2.1h25.5s65,65,65,65v37.8s-17.9,17.9-17.9,17.9c-.3.3-.5.8-.5,1.3v28.5c-1.2.6-2.1,1.9-2.1,3.4s1.7,3.9,3.9,3.9,3.9-1.7,3.9-3.9-.9-2.8-2.1-3.4ZM1682.5,451.4c0-.4,0-.8-.2-1.2l38-38c.3-.3.5-.8.5-1.3v-78.2c1.2-.6,2.1-1.9,2.1-3.4,0-2.1-1.7-3.9-3.9-3.9s-3.9,1.7-3.9,3.9.9,2.8,2.1,3.4v77.5s-37.5,37.5-37.5,37.5c-.4-.1-.8-.2-1.2-.2-2.1,0-3.9,1.7-3.9,3.9s1.7,3.9,3.9,3.9,3.9-1.7,3.9-3.9ZM1599.1,541.9c0,2.1,1.7,3.9,3.9,3.9s2.8-.9,3.4-2.1h44.2c.5,0,.9-.2,1.3-.5l34.1-34.1c.3-.3.5-.8.5-1.3v-16.9c1.2-.6,2.1-1.9,2.1-3.4,0-2.1-1.7-3.9-3.9-3.9s-3.9,1.7-3.9,3.9.9,2.8,2.1,3.4v16.1s-33,33-33,33h-43.4c-.6-1.2-1.9-2.1-3.4-2.1-2.1,0-3.9,1.7-3.9,3.9ZM1580.6,541.9c0,2.1,1.7,3.9,3.9,3.9s3.9-1.7,3.9-3.9,0-.7-.1-1l26.8-26.8,16.8,16.8c.3.3.8.5,1.3.5s.9-.2,1.3-.5l30.9-30.9c.3-.3.5-.8.5-1.3v-13s8.4-8.4,8.4-8.4h25.9c.5,0,.9-.2,1.3-.5l31.5-31.5c.4.1.8.2,1.2.2,2.1,0,3.9-1.7,3.9-3.9s-1.7-3.9-3.9-3.9-3.9,1.7-3.9,3.9,0,.8.2,1.2l-31,31h-25.9c-.5,0-.9.2-1.3.5l-9.5,9.5c-.3.3-.5.8-.5,1.3v13s-29.2,29.2-29.2,29.2l-16.8-16.8c-.7-.7-1.8-.7-2.5,0l-27.9,27.9c-.4-.1-.9-.2-1.3-.2-2.1,0-3.9,1.7-3.9,3.9ZM1560.8,512.9c0-.4,0-.8-.2-1.2l14.3-14.3c.3-.3.5-.8.5-1.3v-51.7s45.9-45.9,45.9-45.9c.3-.3.5-.8.5-1.3v-153c0-.5-.2-.9-.5-1.3l-52.2-52.2c.1-.4.2-.8.2-1.2,0-2.1-1.7-3.9-3.9-3.9s-3.9,1.7-3.9,3.9,1.7,3.9,3.9,3.9.8,0,1.2-.2l51.6,51.6v151.5s-45.9,45.9-45.9,45.9c-.3.3-.5.8-.5,1.3v51.7s-13.8,13.8-13.8,13.8c-.4-.1-.8-.2-1.2-.2-2.1,0-3.9,1.7-3.9,3.9s1.7,3.9,3.9,3.9,3.9-1.7,3.9-3.9ZM1585.7,486.9v-35.9s46.4-46.4,46.4-46.4c.3-.3.5-.8.5-1.3v-165.5c0-.5-.2-.9-.5-1.3l-54.4-54.4c.1-.4.2-.8.2-1.2,0-2.1-1.7-3.9-3.9-3.9s-3.9,1.7-3.9,3.9,1.7,3.9,3.9,3.9.8,0,1.2-.2l53.9,53.9v164s-46.4,46.4-46.4,46.4c-.3.3-.5.8-.5,1.3v36.7c-1.2.6-2.1,1.9-2.1,3.4,0,2.1,1.7,3.9,3.9,3.9s3.9-1.7,3.9-3.9-.9-2.8-2.1-3.4ZM1406.4,597.3c0,2.1,1.7,3.9,3.9,3.9,1.5,0,2.8-.9,3.4-2.1h16.1c.5,0,.9-.2,1.3-.5l7.9-7.9c.4.1.8.2,1.2.2,2.1,0,3.9-1.7,3.9-3.9s-1.7-3.9-3.9-3.9-3.9,1.7-3.9,3.9,0,.8.2,1.2l-7.4,7.4h-15.3c-.6-1.2-1.9-2.1-3.4-2.1-2.1,0-3.9,1.7-3.9,3.9ZM1456.6,204.6l-17.8,17.7c-.4-.1-.8-.2-1.2-.2-2.1,0-3.9,1.7-3.9,3.9s1.7,3.9,3.9,3.9,3.9-1.7,3.9-3.9,0-.8-.2-1.2l17.8-17.7c.4.1.8.2,1.2.2,2.1,0,3.9-1.7,3.9-3.9s-1.7-3.9-3.9-3.9-3.9,1.7-3.9,3.9,0,.8.2,1.2ZM1315.4,136.5c-.1-2.1-2-3.7-4.1-3.6-1.4,0-2.6.9-3.2,2.1h-16.6c-.5,0-.9.2-1.3.5l-28.2,28.2h-39.2c-.5,0-.9.2-1.3.5l-57.3,57.3c-.3.3-.5.8-.5,1.3s.2.9.5,1.3l47.9,47.9c.3.3.8.5,1.3.5h79.1s15.1,15.1,15.1,15.1c.3.3.8.5,1.3.5h47s20.9,20.9,20.9,20.9v24.1c-1.1.7-1.8,1.9-1.8,3.3,0,2.1,1.7,3.9,3.9,3.9s3.9-1.7,3.9-3.9-1-3-2.4-3.6v-24.5c0-.5-.2-.9-.5-1.3l-21.9-21.9c-.3-.3-.8-.5-1.3-.5h-47s-15.2-15.1-15.2-15.1c-.3-.3-.8-.5-1.3-.5h-79.1s-46.1-46.1-46.1-46.1l55.6-55.6h39.2c.5,0,.9-.2,1.3-.5l28.2-28.2h15.9c.7,1.3,2.1,2.2,3.7,2.1,2.1-.1,3.8-2,3.6-4.1ZM1256.6,199.7l-21.7-21.7c.1-.5.2-.9.2-1.4-.1-2.1-2-3.7-4.1-3.6-2.1.1-3.7,2-3.6,4.1.1,2.1,2,3.7,4.1,3.6.3,0,.6,0,.9-.2l21.7,21.7c-.1.5-.2.9-.2,1.4.1,2.1,2,3.8,4.1,3.6,2.1-.1,3.7-2,3.6-4.1-.1-2.1-2-3.7-4.1-3.6-.3,0-.6,0-.9.2ZM1277.6,202l-24-24c.1-.5.2-.9.2-1.4-.1-2.1-2-3.7-4.1-3.6-2.1.1-3.7,2-3.6,4.1.1,2.1,2,3.8,4.1,3.6.3,0,.6,0,.9-.2l24,24c-.1.5-.2.9-.2,1.4.1,2.1,2,3.8,4.1,3.6,2.1-.1,3.8-2,3.6-4.1-.1-2.1-2-3.7-4.1-3.6-.3,0-.6,0-.9.2ZM1234.4,202.3h-30.5c-.7-1.3-2.1-2.2-3.7-2.1-2.1.1-3.7,2-3.6,4.1.1,2.1,2,3.7,4.1,3.6,1.4,0,2.6-.9,3.2-2.1h30.5c.7,1.3,2.1,2.2,3.7,2.1,2.1-.1,3.7-2,3.6-4.1-.1-2.1-2-3.7-4.1-3.6-1.4,0-2.6.9-3.2,2.1ZM1193.5,228h132.7s82.4,82.4,82.4,82.4c.3.3.8.5,1.3.5s.9-.2,1.3-.5c.7-.7.7-1.8,0-2.5l-83-83c-.3-.3-.8-.5-1.3-.5h-133.5c-.7-1.3-2.1-2.2-3.7-2.1-2.1.1-3.7,2-3.6,4.1.1,2.1,2,3.8,4.1,3.6,1.4,0,2.6-.9,3.2-2.1ZM1204.8,239.1h118s78.6,78.6,78.6,78.6c.3.3.8.5,1.3.5s.9-.2,1.3-.5c.7-.7.7-1.8,0-2.5l-79.1-79.1c-.3-.3-.8-.5-1.3-.5h-118.7c-.7-1.3-2.1-2.2-3.7-2.1-2.1.1-3.7,2-3.6,4.1.1,2.1,2,3.7,4.1,3.6,1.4,0,2.6-.9,3.2-2.1ZM1317.1,171.9c.1,2.1,2,3.7,4.1,3.6,1.4,0,2.6-.9,3.2-2.1h30.8c.7,1.3,2.1,2.2,3.7,2.1,2.1-.1,3.8-2,3.6-4.1-.1-2.1-2-3.7-4.1-3.6-1.4,0-2.6.9-3.2,2.1h-30.8c-.7-1.3-2.1-2.2-3.7-2.1-2.1.1-3.7,2-3.6,4.1ZM1553.9,158.6c0-2.1-1.7-3.9-3.9-3.9s-.8,0-1.2.2l-17.7-17.7c-.3-.3-.8-.5-1.3-.5h-51.7s-10.2-10.2-10.2-10.2c-.3-.3-.8-.5-1.3-.5h-94.7c-.5,0-.9.2-1.3.5l-8.7,8.7h-28.1c-.7-1.3-2.1-2.2-3.7-2.1-2.1.1-3.7,2-3.6,4.1.1,2.1,2,3.7,4.1,3.6,1.4,0,2.6-.9,3.2-2.1h28.9c.5,0,.9-.2,1.3-.5l8.7-8.7h93.3s10.2,10.2,10.2,10.2c.3.3.8.5,1.3.5h51.7s17.2,17.2,17.2,17.2c-.1.4-.2.8-.2,1.2,0,2.1,1.7,3.9,3.9,3.9s3.9-1.7,3.9-3.9ZM1520.9,157.2c0-2.1-1.7-3.9-3.9-3.9s-2.8.9-3.4,2.1h-29c-.6-1.2-1.9-2.1-3.4-2.1-2.1,0-3.9,1.7-3.9,3.9s1.7,3.9,3.9,3.9,2.8-.9,3.4-2.1h29c.6,1.2,1.9,2.1,3.4,2.1,2.1,0,3.9-1.7,3.9-3.9ZM1520.9,171.7c0-2.1-1.7-3.9-3.9-3.9s-2.8.9-3.4,2.1h-29c-.6-1.2-1.9-2.1-3.4-2.1-2.1,0-3.9,1.7-3.9,3.9s1.7,3.9,3.9,3.9,2.8-.9,3.4-2.1h29c.6,1.2,1.9,2.1,3.4,2.1,2.1,0,3.9-1.7,3.9-3.9ZM1562.5,165.6c-2.1,0-3.9,1.7-3.9,3.9s0,.8.2,1.2l-26.4,26.4c-.3.3-.5.8-.5,1.3s.2.9.5,1.3l56.2,56.2v128.8s-88.7,88.7-88.7,88.7c-.3.3-.5.8-.5,1.3v36.4c0,.5.2.9.5,1.3.3.3.8.5,1.3.5h24c.5,0,.9-.2,1.3-.5l37.5-37.5c.3-.3.5-.8.5-1.3v-35.6s46.1-46.1,46.1-46.1c.3-.3.5-.8.5-1.3v-139.7c0-.5-.2-.9-.5-1.3l-49.8-49.8c.1-.4.2-.8.2-1.2,0-2.1-1.7-3.9-3.9-3.9s-3.9,1.7-3.9,3.9,1.7,3.9,3.9,3.9.8,0,1.2-.2l49.3,49.3v138.2s-46.1,46.1-46.1,46.1c-.3.3-.5.8-.5,1.3v35.6s-36.5,36.5-36.5,36.5h-21.4v-33.9s88.7-88.7,88.7-88.7c.3-.3.5-.8.5-1.3v-130.2c0-.5-.2-.9-.5-1.3l-55.5-55.5,25.1-25.1c.4.1.8.2,1.2.2,2.1,0,3.9-1.7,3.9-3.9s-1.7-3.9-3.9-3.9ZM1443.6,148.8v46.1s-27.3,27.3-27.3,27.3c-1.8.3-3.2,1.9-3.2,3.8s1.7,3.9,3.9,3.9,3.9-1.7,3.9-3.9-.3-1.8-.9-2.4l26.6-26.6c.3-.3.5-.8.5-1.3v-46.9c1.2-.6,2.1-1.9,2.1-3.4,0-2.1-1.7-3.9-3.9-3.9s-3.9,1.7-3.9,3.9.9,2.8,2.1,3.4ZM1429.8,148.8v40.3s-33.1,33.1-33.1,33.1c-.2,0-.4,0-.6,0-2.1,0-3.9,1.7-3.9,3.9s1.7,3.9,3.9,3.9,3.9-1.7,3.9-3.9-.1-1.1-.4-1.6l33.2-33.2c.3-.3.5-.8.5-1.3v-41.1c1.2-.6,2.1-1.9,2.1-3.4,0-2.1-1.7-3.9-3.9-3.9s-3.9,1.7-3.9,3.9.9,2.8,2.1,3.4ZM1415.9,148.8v34.8s-36.2,36.2-36.2,36.2c-.4-.1-.8-.2-1.2-.2-2.1,0-3.9,1.7-3.9,3.9s1.7,3.9,3.9,3.9,3.9-1.7,3.9-3.9,0-.8-.2-1.2l36.7-36.7c.3-.3.5-.8.5-1.3v-35.6c1.2-.6,2.1-1.9,2.1-3.4,0-2.1-1.7-3.9-3.9-3.9s-3.9,1.7-3.9,3.9.9,2.8,2.1,3.4ZM1402.1,148.8v29.7s-35.1,35.1-35.1,35.1c-.5-.1-.9-.2-1.4-.2-2.1.1-3.7,2-3.6,4.1.1,2.1,2,3.8,4.1,3.6,2.1-.1,3.8-2,3.6-4.1,0-.3,0-.6-.2-.9l35.6-35.6c.3-.3.5-.8.5-1.3v-30.4c1.2-.6,2.1-1.9,2.1-3.4,0-2.1-1.7-3.9-3.9-3.9s-3.9,1.7-3.9,3.9.9,2.8,2.1,3.4ZM1388.2,148.8v24.8s-30.6,30.6-30.6,30.6c-.4-.1-.9-.2-1.4-.2-2.1.1-3.7,2-3.6,4.1.1,2.1,2,3.7,4.1,3.6,2.1-.1,3.7-2,3.6-4.1,0-.3,0-.6-.2-.9l31.1-31.1c.3-.3.5-.8.5-1.3v-25.6c1.4-.7,2.2-2.2,2.1-3.8-.2-2.1-2.1-3.7-4.2-3.5-2.1.2-3.7,2.1-3.5,4.2.1,1.4,1,2.5,2.1,3.1ZM1374,148.8v19.7s-26.1,26.1-26.1,26.1c-.5-.1-.9-.2-1.4-.2-2.1.1-3.7,2-3.6,4.1.1,2.1,2,3.8,4.1,3.6,2.1-.1,3.7-2,3.6-4.1,0-.3,0-.6-.2-.9l26.6-26.6c.3-.3.5-.8.5-1.3v-20.4c1.4-.7,2.2-2.2,2.1-3.8-.2-2.1-2.1-3.7-4.2-3.5-2.1.2-3.7,2.1-3.5,4.2.1,1.4,1,2.5,2.1,3.1ZM1345.6,568.2c0,.4,0,.8.2,1.2l-21.7,21.7h-125.7s-47.8-47.8-47.8-47.8c.1-.4.2-.8.2-1.2,0-2.1-1.7-3.9-3.9-3.9s-3.9,1.7-3.9,3.9,1.7,3.9,3.9,3.9.8,0,1.2-.2l48.4,48.4c.3.3.8.5,1.3.5h127.2c.5,0,.9-.2,1.3-.5l22.2-22.2c.4.1.8.2,1.2.2,2.1,0,3.9-1.7,3.9-3.9s-1.7-3.9-3.9-3.9-3.9,1.7-3.9,3.9ZM1353.7,591.7c0-2.1-1.7-3.9-3.9-3.9s-3.9,1.7-3.9,3.9,0,.8.2,1.2l-14.6,14.6h-138.7s-74.6-74.6-74.6-74.6v-50.6s25.3-25.3,25.3-25.3c.3-.3.5-.8.5-1.3v-119.6s36.4-36.4,36.4-36.4c.3-.3.5-.8.5-1.3v-33.2c1.2-.6,2.1-1.9,2.1-3.4,0-2.1-1.7-3.9-3.9-3.9s-3.9,1.7-3.9,3.9.9,2.8,2.1,3.4v32.5s-36.4,36.4-36.4,36.4c-.3.3-.5.8-.5,1.3v119.6s-25.3,25.3-25.3,25.3c-.3.3-.5.8-.5,1.3v52.1c0,.5.2.9.5,1.3l75.6,75.6c.3.3.8.5,1.3.5h140.2c.5,0,.9-.2,1.3-.5l15.1-15.1c.4.1.8.2,1.2.2,2.1,0,3.9-1.7,3.9-3.9ZM1204.3,642.4c-2.1,0-3.9,1.7-3.9,3.9s1.7,3.9,3.9,3.9,3.2-1.1,3.7-2.7h32.9c.6,1.2,1.9,2.1,3.4,2.1,2.1,0,3.9-1.7,3.9-3.9s-1.7-3.9-3.9-3.9-2.8.9-3.4,2.1h-33.5c-.7-.9-1.8-1.5-3.1-1.5ZM1197.4,635.9h55c.6,1.2,1.9,2.1,3.4,2.1,2.1,0,3.9-1.7,3.9-3.9s-1.7-3.9-3.9-3.9-2.8.9-3.4,2.1h-55c-.6-1.2-1.9-2.1-3.4-2.1-2.1,0-3.9,1.7-3.9,3.9s1.7,3.9,3.9,3.9,2.8-.9,3.4-2.1ZM1202.8,828.8c0,2.1,1.7,3.9,3.9,3.9s3.9-1.7,3.9-3.9-.9-2.8-2.1-3.4v-131.5c0-.5-.2-.9-.5-1.3l-41.4-41.4c.1-.4.2-.8.2-1.2,0-2.1-1.7-3.9-3.9-3.9s-3.9,1.7-3.9,3.9,1.7,3.9,3.9,3.9.8,0,1.2-.2l40.9,40.9v130.8c-1.2.6-2.1,1.9-2.1,3.4ZM1189,771.2c0,1.5.9,2.8,2.1,3.4v80c0,1,.8,1.8,1.8,1.8s1.8-.8,1.8-1.8v-80c1.2-.6,2.1-1.9,2.1-3.4,0-2.1-1.7-3.9-3.9-3.9s-3.9,1.7-3.9,3.9ZM1163.6,621l59.8,59.8c.3.3.8.5,1.3.5s.9-.2,1.3-.5l43.4-43.4c.4.1.8.2,1.2.2,2.1,0,3.9-1.7,3.9-3.9s-1.7-3.9-3.9-3.9-3.9,1.7-3.9,3.9,0,.8.2,1.2l-42.1,42.1-58.5-58.5c.1-.4.2-.8.2-1.2,0-2.1-1.7-3.9-3.9-3.9s-3.9,1.7-3.9,3.9,1.7,3.9,3.9,3.9.8,0,1.2-.2ZM1100.6,620.3c0,1.5.9,2.8,2.1,3.4v36.1c0,.5.2.9.5,1.3l51.1,51.1v14.7c-1.2.6-2.1,1.9-2.1,3.4s1.7,3.9,3.9,3.9,3.9-1.7,3.9-3.9-.9-2.8-2.1-3.4v-15.4c0-.5-.2-.9-.5-1.3l-51.1-51.1v-35.4c1.2-.6,2.1-1.9,2.1-3.4,0-2.1-1.7-3.9-3.9-3.9s-3.9,1.7-3.9,3.9ZM1055,431.2c0,1.5.9,2.8,2.1,3.4v34.2c0,.5.2.9.5,1.3l14.3,14.3v71.2c0,.5.2.9.5,1.3l30.3,30.3v13c-1.2.6-2.1,1.9-2.1,3.4,0,2.1,1.7,3.9,3.9,3.9s3.9-1.7,3.9-3.9-.9-2.8-2.1-3.4v-13.8c0-.5-.2-.9-.5-1.3l-30.3-30.3v-71.2c0-.5-.2-.9-.5-1.3l-14.3-14.3v-33.4c1.2-.6,2.1-1.9,2.1-3.4,0-2.1-1.7-3.9-3.9-3.9s-3.9,1.7-3.9,3.9ZM1125.5,505.1c0,2.1,1.7,3.9,3.9,3.9s2.8-.9,3.4-2.1h19.8s55.4,55.4,55.4,55.4c.3.3.8.5,1.3.5h104.3c.5,0,.9-.2,1.3-.5l28.2-28.2c.4.1.8.2,1.2.2,2.1,0,3.9-1.7,3.9-3.9s-1.7-3.9-3.9-3.9-3.9,1.7-3.9,3.9,0,.8.2,1.2l-27.7,27.7h-102.9s-55.4-55.4-55.4-55.4c-.3-.3-.8-.5-1.3-.5h-20.6c-.6-1.2-1.9-2.1-3.4-2.1-2.1,0-3.9,1.7-3.9,3.9ZM1132.7,527.9h19s50.2,50.3,50.2,50.3c.3.3.8.5,1.3.5h116.2c.5,0,.9-.2,1.3-.5l32.4-32.4c.4.2.9.3,1.4.3,2.1,0,3.9-1.7,3.9-3.9s-1.7-3.9-3.9-3.9-3.9,1.7-3.9,3.9,0,.6.1.9l-32,32h-114.7s-50.3-50.2-50.3-50.2c-.3-.3-.8-.5-1.3-.5h-19.5c-.6-1.4-2-2.3-3.5-2.3s-3.9,1.7-3.9,3.9,1.7,3.9,3.9,3.9,2.6-.8,3.3-1.9ZM1171,642.6l44.7,44.7v169c0,1,.8,1.8,1.8,1.8s1.8-.8,1.8-1.8v-169.8c0-.5-.2-.9-.5-1.3l-45.3-45.3c0-.3.1-.6.1-.9,0-2.1-1.7-3.9-3.9-3.9s-3.9,1.7-3.9,3.9,1.7,3.9,3.9,3.9.9,0,1.4-.3ZM1162.2,452.7v-16.9s35.1-35.1,35.1-35.1h56.7c.6,1.2,1.9,2.1,3.4,2.1,2.1,0,3.9-1.7,3.9-3.9s-1.7-3.9-3.9-3.9-2.8.9-3.4,2.1h-57.4c-.5,0-.9.2-1.3.5l-36.1,36.1c-.3.3-.5.8-.5,1.3v17.6c-1.2.6-2.1,1.9-2.1,3.4s1.7,3.9,3.9,3.9,3.9-1.7,3.9-3.9-.9-2.8-2.1-3.4ZM1171.9,461.2v-15.7s35.1-35.1,35.1-35.1h47c.6,1.2,1.9,2.1,3.4,2.1,2.1,0,3.9-1.7,3.9-3.9s-1.7-3.9-3.9-3.9-2.8.9-3.4,2.1h-47.8c-.5,0-.9.2-1.3.5l-36.1,36.1c-.3.3-.5.8-.5,1.3v16.2c-1.3.6-2.3,2-2.3,3.5s1.7,3.9,3.9,3.9,3.9-1.7,3.9-3.9-.8-2.7-1.9-3.3ZM1196.9,483.2h43.8c.5,0,.9-.2,1.3-.5l40.5-40.5c.3-.3.5-.8.5-1.3v-37.9c1.2-.7,2-1.9,2-3.4,0-2.1-1.7-3.9-3.9-3.9s-3.9,1.7-3.9,3.9.9,2.8,2.2,3.5v37.1s-39.5,39.5-39.5,39.5h-43c-.6-1.2-1.9-2.1-3.4-2.1-2.1,0-3.9,1.7-3.9,3.9s1.7,3.9,3.9,3.9,2.8-.9,3.4-2.1ZM1208.1,494.9h40.3c.5,0,.9-.2,1.3-.5l44.4-44.4c.3-.3.5-.8.5-1.3v-34.3c1.2-.7,2-1.9,2-3.4s-1.7-3.9-3.9-3.9-3.9,1.7-3.9,3.9.9,2.8,2.2,3.5v33.5s-43.3,43.3-43.3,43.3h-39.2c-.6-1.4-2-2.5-3.6-2.5s-3.9,1.7-3.9,3.9,1.7,3.9,3.9,3.9,2.5-.7,3.2-1.7ZM1087,429c0-.4,0-.8-.2-1.2l14.9-14.9c.3,0,.6.1.9.1,2.1,0,3.9-1.7,3.9-3.9s-1.7-3.9-3.9-3.9-3.9,1.7-3.9,3.9.1,1,.3,1.4l-14.7,14.7c-.4-.1-.8-.2-1.2-.2-2.1,0-3.9,1.7-3.9,3.9s1.7,3.9,3.9,3.9,3.9-1.7,3.9-3.9ZM1098.8,381.3c0,.5.1,1,.3,1.5l-14.7,14.7c-.4-.1-.8-.2-1.2-.2-2.1,0-3.9,1.7-3.9,3.9s1.7,3.9,3.9,3.9,3.9-1.7,3.9-3.9,0-.8-.2-1.2l15-15c.3,0,.5,0,.8,0,2.1,0,3.9-1.7,3.9-3.9s-1.7-3.9-3.9-3.9-3.9,1.7-3.9,3.9ZM1132.2,275.4l16.6,16.7c-.1.4-.2.8-.2,1.2,0,2.1,1.7,3.9,3.9,3.9s3.9-1.7,3.9-3.9-1.7-3.9-3.9-3.9-.8,0-1.2.2l-16.6-16.7c.1-.4.2-.8.2-1.2,0-2.1-1.7-3.9-3.9-3.9s-3.9,1.7-3.9,3.9,1.7,3.9,3.9,3.9.8,0,1.2-.2ZM1121.7,286l16.7,16.6c-.1.4-.2.8-.2,1.2,0,2.1,1.7,3.9,3.9,3.9s3.9-1.7,3.9-3.9-1.7-3.9-3.9-3.9-.8,0-1.2.2l-16.7-16.6c.1-.4.2-.8.2-1.2,0-2.1-1.7-3.9-3.9-3.9s-3.9,1.7-3.9,3.9,1.7,3.9,3.9,3.9.8,0,1.2-.2ZM1111.1,296.5l16.6,16.6c-.1.4-.2.8-.2,1.2,0,2.1,1.7,3.9,3.9,3.9s3.9-1.7,3.9-3.9-1.7-3.9-3.9-3.9-.8,0-1.2.2l-16.7-16.7c.1-.4.2-.8.2-1.2,0-2.1-1.7-3.9-3.9-3.9s-3.9,1.7-3.9,3.9,1.7,3.9,3.9,3.9.8,0,1.2-.2ZM1192.7,290.8c0,2.1,1.7,3.9,3.9,3.9s3.1-1.1,3.7-2.6h88.6s71.6,71.6,71.6,71.6v84.4s-65.6,65.6-65.6,65.6h-63.6c-.7-.9-1.8-1.5-3.1-1.5-2.1,0-3.9,1.7-3.9,3.9s1.7,3.9,3.9,3.9,3.1-1.1,3.7-2.7h63.7c.5,0,.9-.2,1.3-.5l66.7-66.7c.3-.3.5-.8.5-1.3v-85.9c0-.5-.2-.9-.5-1.3l-72.7-72.7c-.3-.3-.8-.5-1.3-.5h-89.9c-.7-.9-1.8-1.5-3.1-1.5-2.1,0-3.9,1.7-3.9,3.9ZM1182.1,316.1c0,2.1,1.7,3.9,3.9,3.9s2.8-.9,3.4-2.1h90.1s62.1,62.1,62.1,62.1v66.5s-29.4,29.4-29.4,29.4c-.4-.1-.8-.2-1.2-.2-2.1,0-3.9,1.7-3.9,3.9s1.7,3.9,3.9,3.9,3.9-1.7,3.9-3.9,0-.8-.2-1.2l29.9-29.9c.3-.3.5-.8.5-1.3v-68c0-.5-.2-.9-.5-1.3l-63.1-63.1c-.3-.3-.8-.5-1.3-.5h-90.9c-.6-1.2-1.9-2.1-3.4-2.1-2.1,0-3.9,1.7-3.9,3.9ZM1155.3,343c0,2.1,1.7,3.9,3.9,3.9s2.8-.9,3.4-2.1h125.9s37.3,37.3,37.3,37.3c-.2.4-.3.9-.3,1.4,0,2.1,1.7,3.9,3.9,3.9s3.9-1.7,3.9-3.9-1.7-3.9-3.9-3.9-.6,0-.9.1l-38-38c-.3-.3-.8-.5-1.3-.5h-126.6c-.6-1.2-1.9-2.1-3.4-2.1-2.1,0-3.9,1.7-3.9,3.9Z"/>
    </g>
  </g>
</svg>