<?xml version="1.0" encoding="UTF-8"?>
<svg xmlns="http://www.w3.org/2000/svg" version="1.1" viewBox="0 0 47 44">
  <defs>
    <style>
      .cls-1 {
        fill: #fff;
      }
    </style>
  </defs>
  <!-- Generator: Adobe Illustrator 28.7.4, SVG Export Plug-In . SVG Version: 1.2.0 Build 166)  -->
  <g>
    <g id="Layer_1">
      <g>
        <path class="cls-1" d="M13.7,40.2c-3,0-5.4-1.7-5.4-5.9v-7.3c0-2.6-2.6-2.8-3.8-2.8v-4.3c1.2,0,3.8-.3,3.8-2.8v-7.3c0-4.3,2.4-6,5.4-6h4.5v4h-1.6c-2,0-2.1,1.5-2.1,2.6v7.7c0,3.1-2.9,3.8-4.6,3.9h0c1.7.2,4.6.5,4.6,4.3v7.4c0,1.1.2,2.6,2.1,2.6h1.6v4h-4.5Z"/>
        <path class="cls-1" d="M18.2,19h10.5v5.9h-10.5v-5.9Z"/>
        <path class="cls-1" d="M28.8,36.2h1.7c2,0,2.1-1.5,2.1-2.6v-7.4c0-3.8,2.9-4.1,4.6-4.2h0c-1.7-.2-4.6-.9-4.6-4v-7.7c0-1.1-.2-2.6-2.1-2.6h-1.7V3.7h4.6c3,0,5.4,1.7,5.4,6v7.3c0,2.6,2.6,2.8,3.8,2.8v4.3c-1.2,0-3.8.3-3.8,2.8v7.3c0,4.3-2.4,5.9-5.4,5.9h-4.6v-4Z"/>
      </g>
    </g>
  </g>
</svg>